<svg width="144" height="47" viewBox="0 0 144 47" fill="none" xmlns="http://www.w3.org/2000/svg">
<path d="M2.19813 9.14816C-1.77813 5.1719 0.633824 2.8911 1.76246 1.76246C2.8911 0.633824 5.1719 -1.77813 9.14816 2.19813L16.3063 9.35625C16.4948 9.54473 16.7579 9.63922 17.0251 9.61437L43.5123 7.15066C44.3052 7.07691 45.0861 7.35734 45.6454 7.91665C47.0544 9.32567 46.4676 11.7421 44.5612 12.3814L26.324 18.4969C25.6815 18.7123 25.4838 19.5266 25.9586 20.0014L33.8193 27.8621L44.0917 30.2108C44.9344 30.4035 45.0406 31.5581 44.2488 31.9195L35.7828 35.7828L31.9195 44.2488C31.5581 45.0406 30.4035 44.9345 30.2108 44.0917L27.8621 33.8193L20.0014 25.9586C19.5266 25.4838 18.7123 25.6816 18.4969 26.324L12.3814 44.5612C11.7421 46.4676 9.32567 47.0544 7.91665 45.6454C7.35734 45.0861 7.07691 44.3052 7.15066 43.5123L9.61437 17.0251C9.63922 16.7579 9.54472 16.4948 9.35625 16.3063L2.19813 9.14816Z" fill="#0078a1"/>
<path d="M73.4095 46.4242C69.3783 46.4242 65.92 45.758 63.0345 44.4254C60.1915 43.0929 57.9637 41.137 56.3513 38.5579C54.7812 35.9788 53.9114 32.7764 53.7416 28.9507C53.6992 27.1883 53.678 25.2969 53.678 23.2766C53.678 21.2563 53.6992 19.3219 53.7416 17.4736C53.9114 13.7338 54.8025 10.5744 56.4149 7.99529C58.0274 5.37318 60.2764 3.39585 63.1618 2.0633C66.0473 0.687767 69.4632 0 73.4095 0C76.2101 0 78.7985 0.365376 81.1748 1.09613C83.5511 1.78389 85.6303 2.81554 87.4125 4.19108C89.1947 5.52363 90.5738 7.15707 91.5498 9.09142C92.5682 10.9828 93.0986 13.132 93.141 15.5392C93.1834 15.9261 93.0561 16.2485 92.7591 16.5064C92.5045 16.7643 92.1863 16.8933 91.8044 16.8933H83.2116C82.66 16.8933 82.2356 16.7858 81.9386 16.5709C81.6416 16.313 81.387 15.8616 81.1748 15.2168C80.5807 12.9386 79.6048 11.3911 78.2469 10.5744C76.9315 9.7147 75.2978 9.28485 73.3458 9.28485C71.012 9.28485 69.1662 9.95112 67.8083 11.2837C66.4504 12.5732 65.7078 14.744 65.5805 17.796C65.4532 21.3208 65.4532 24.9315 65.5805 28.6283C65.7078 31.6802 66.4504 33.8725 67.8083 35.2051C69.1662 36.4946 71.012 37.1394 73.3458 37.1394C75.2978 37.1394 76.9527 36.7095 78.3105 35.8498C79.6684 34.9901 80.6232 33.4427 81.1748 31.2074C81.3445 30.5626 81.5779 30.1328 81.875 29.9178C82.2144 29.6599 82.66 29.531 83.2116 29.531H91.8044C92.1863 29.531 92.5045 29.6599 92.7591 29.9178C93.0561 30.1758 93.1834 30.4981 93.141 30.885C93.0986 33.2922 92.5682 35.463 91.5498 37.3973C90.5738 39.2887 89.1947 40.9221 87.4125 42.2976C85.6303 43.6302 83.5511 44.6618 81.1748 45.3926C78.7985 46.0804 76.2101 46.4242 73.4095 46.4242Z" fill="#0078a1"/>
<path d="M101.425 45.7795C101.001 45.7795 100.619 45.629 100.279 45.3281C99.9822 45.0272 99.8337 44.6403 99.8337 44.1675V2.25674C99.8337 1.78389 99.9822 1.39703 100.279 1.09613C100.619 0.79523 101.001 0.644781 101.425 0.644781H108.299C108.978 0.644781 109.487 0.838215 109.827 1.22508C110.209 1.56897 110.442 1.84837 110.527 2.0633L121.729 22.4384L132.932 2.0633C133.059 1.84837 133.271 1.56897 133.568 1.22508C133.908 0.838215 134.438 0.644781 135.159 0.644781H141.97C142.437 0.644781 142.819 0.79523 143.116 1.09613C143.455 1.39703 143.625 1.78389 143.625 2.25674V44.1675C143.625 44.6403 143.455 45.0272 143.116 45.3281C142.819 45.629 142.437 45.7795 141.97 45.7795H134.396C133.929 45.7795 133.526 45.629 133.186 45.3281C132.889 45.0272 132.741 44.6403 132.741 44.1675V19.9882L125.548 33.4641C125.379 33.851 125.124 34.1949 124.785 34.4958C124.445 34.7967 123.978 34.9471 123.384 34.9471H120.074C119.48 34.9471 119.014 34.7967 118.674 34.4958C118.335 34.1949 118.059 33.851 117.847 33.4641L110.654 19.9882V44.1675C110.654 44.6403 110.506 45.0272 110.209 45.3281C109.912 45.629 109.53 45.7795 109.063 45.7795H101.425Z" fill="#0078a1"/>
</svg>
