<svg width="1006" height="600" viewBox="0 0 1006 600" fill="none" xmlns="http://www.w3.org/2000/svg">
<path d="M518.014 528.5C762.014 528.5 828.167 172 830 0H1005.51C1005.51 447 729.514 599.5 518.014 599.5C348.814 599.5 152.514 510.5 75.5135 466L93.0135 444.5C133.014 472.5 274.014 528.5 518.014 528.5Z" fill="#E4F9FF"/>
<mask id="mask0_46_2" style="mask-type:alpha" maskUnits="userSpaceOnUse" x="0" y="368" width="176" height="177">
<rect y="479.617" width="128.191" height="128.191" transform="rotate(-59.6566 0 479.617)" fill="#D9D9D9"/>
</mask>
<g mask="url(#mask0_46_2)">
<path d="M124.347 499.798L117.432 495.751L115.915 482.484L90.5619 467.643L79.1502 513.571L69.931 508.174L69.8187 455.501L44.4659 440.66C42.5453 439.536 41.3074 437.908 40.7524 435.776C40.1925 433.645 40.4747 431.619 41.599 429.698C42.7233 427.778 44.3515 426.54 46.4836 425.985C48.6145 425.425 50.6402 425.707 52.5609 426.831L77.9137 441.672L123.897 415.982L133.117 421.379L98.6569 453.814L124.01 468.655L136.321 463.484L143.235 467.531L129.181 480.966L124.347 499.798Z" fill="#003242"/>
</g>
</svg>
